<svg width="1119" height="226" viewBox="0 0 1119 226" fill="none" xmlns="http://www.w3.org/2000/svg">
<path d="M19.6001 163.601V202.001H173.201V10H19.6001V48.4002" stroke="#2F88FF" stroke-width="19.2001" stroke-linecap="round" stroke-linejoin="round"/>
<path d="M10 134.801H29.2001" stroke="#2F88FF" stroke-width="19.2001" stroke-linecap="round" stroke-linejoin="round"/>
<path d="M10 106.001H29.2001" stroke="#2F88FF" stroke-width="19.2001" stroke-linecap="round" stroke-linejoin="round"/>
<path d="M10 77.2002H29.2001" stroke="#2F88FF" stroke-width="19.2001" stroke-linecap="round" stroke-linejoin="round"/>
<path d="M96.4006 91.6004C107.004 91.6004 115.601 83.0042 115.601 72.4003C115.601 61.7964 107.004 53.2002 96.4006 53.2002C85.7966 53.2002 77.2004 61.7964 77.2004 72.4003C77.2004 83.0042 85.7966 91.6004 96.4006 91.6004Z" fill="#2F88FF" stroke="#2F88FF" stroke-width="19.2001" stroke-linecap="round" stroke-linejoin="round"/>
<path d="M134.801 158.801C134.801 137.593 117.608 120.4 96.4005 120.4C75.1925 120.4 58.0002 137.593 58.0002 158.801" stroke="#2F88FF" stroke-width="19.2001" stroke-linecap="round" stroke-linejoin="round"/>
<path d="M217.148 31.7274H256.591L298.25 133.364H300.023L341.682 31.7274H381.125V183H350.102V84.5399H348.847L309.699 182.261H288.574L249.426 84.1705H248.17V183H217.148V31.7274Z" fill="white"/>
<path d="M426.311 225.546C422.322 225.546 418.58 225.225 415.084 224.585C411.637 223.994 408.781 223.231 406.516 222.296L413.607 198.807C417.3 199.939 420.624 200.555 423.578 200.654C426.582 200.752 429.167 200.063 431.334 198.585C433.55 197.108 435.347 194.597 436.726 191.051L438.572 186.25L397.874 69.5455H430.964L454.453 152.864H455.635L479.345 69.5455H512.658L468.561 195.261C466.444 201.368 463.563 206.686 459.919 211.216C456.324 215.796 451.769 219.316 446.254 221.779C440.739 224.29 434.091 225.546 426.311 225.546Z" fill="white"/>
<path d="M662.822 84.6876H630.47C629.879 80.502 628.673 76.7842 626.851 73.5342C625.029 70.2349 622.69 67.4281 619.834 65.1137C616.978 62.7993 613.678 61.0266 609.936 59.7955C606.243 58.5645 602.23 57.949 597.896 57.949C590.067 57.949 583.247 59.894 577.436 63.7842C571.625 67.6251 567.12 73.2387 563.919 80.6251C560.718 87.9622 559.118 96.8751 559.118 107.364C559.118 118.148 560.718 127.208 563.919 134.546C567.169 141.883 571.699 147.422 577.51 151.165C583.321 154.907 590.042 156.779 597.675 156.779C601.959 156.779 605.923 156.212 609.567 155.08C613.26 153.947 616.535 152.297 619.391 150.131C622.247 147.915 624.61 145.231 626.482 142.08C628.402 138.928 629.732 135.333 630.47 131.296L662.822 131.443C661.985 138.386 659.892 145.083 656.544 151.534C653.245 157.936 648.788 163.672 643.175 168.744C637.61 173.767 630.963 177.756 623.232 180.71C615.55 183.616 606.858 185.068 597.158 185.068C583.665 185.068 571.601 182.015 560.964 175.909C550.377 169.803 542.006 160.964 535.851 149.392C529.745 137.82 526.692 123.811 526.692 107.364C526.692 90.8675 529.794 76.8334 535.999 65.2615C542.203 53.6895 550.624 44.8751 561.26 38.8183C571.896 32.7122 583.862 29.6592 597.158 29.6592C605.923 29.6592 614.048 30.8902 621.533 33.3524C629.067 35.8145 635.739 39.4092 641.55 44.1364C647.36 48.8145 652.088 54.5512 655.732 61.3467C659.425 68.1421 661.788 75.9224 662.822 84.6876Z" fill="#2F88FF"/>
<path d="M736.428 185.216C724.954 185.216 715.032 182.779 706.66 177.904C698.339 172.979 691.912 166.135 687.382 157.369C682.852 148.555 680.587 138.337 680.587 126.716C680.587 114.996 682.852 104.754 687.382 95.9887C691.912 87.1743 698.339 80.3296 706.66 75.4546C715.032 70.5304 724.954 68.0683 736.428 68.0683C747.901 68.0683 757.799 70.5304 766.121 75.4546C774.492 80.3296 780.943 87.1743 785.473 95.9887C790.003 104.754 792.268 114.996 792.268 126.716C792.268 138.337 790.003 148.555 785.473 157.369C780.943 166.135 774.492 172.979 766.121 177.904C757.799 182.779 747.901 185.216 736.428 185.216ZM736.575 160.841C741.795 160.841 746.153 159.364 749.649 156.409C753.145 153.405 755.78 149.318 757.553 144.148C759.375 138.977 760.286 133.093 760.286 126.494C760.286 119.896 759.375 114.011 757.553 108.841C755.78 103.671 753.145 99.5834 749.649 96.5796C746.153 93.5758 741.795 92.074 736.575 92.074C731.306 92.074 726.875 93.5758 723.28 96.5796C719.734 99.5834 717.051 103.671 715.229 108.841C713.456 114.011 712.57 119.896 712.57 126.494C712.57 133.093 713.456 138.977 715.229 144.148C717.051 149.318 719.734 153.405 723.28 156.409C726.875 159.364 731.306 160.841 736.575 160.841Z" fill="#2F88FF"/>
<path d="M844.195 117.409V183H812.729V69.5455H842.717V89.5626H844.047C846.558 82.9641 850.768 77.7444 856.678 73.9035C862.587 70.0133 869.751 68.0683 878.172 68.0683C886.051 68.0683 892.92 69.7918 898.78 73.2387C904.64 76.6857 909.195 81.6099 912.445 88.0115C915.695 94.3637 917.32 101.947 917.32 110.761V183H885.854V116.375C885.903 109.432 884.13 104.015 880.536 100.125C876.941 96.1857 871.992 94.216 865.689 94.216C861.454 94.216 857.712 95.127 854.462 96.949C851.261 98.7709 848.75 101.43 846.928 104.926C845.155 108.373 844.244 112.534 844.195 117.409Z" fill="#2F88FF"/>
<path d="M1002.47 69.5455V93.1819H934.142V69.5455H1002.47ZM949.653 42.3637H981.119V148.136C981.119 151.042 981.562 153.307 982.449 154.932C983.335 156.508 984.566 157.616 986.142 158.256C987.767 158.896 989.638 159.216 991.756 159.216C993.233 159.216 994.71 159.093 996.188 158.847C997.665 158.551 998.797 158.33 999.585 158.182L1004.53 181.597C1002.96 182.089 1000.74 182.655 997.886 183.296C995.03 183.985 991.559 184.403 987.472 184.551C979.888 184.847 973.241 183.837 967.528 181.523C961.866 179.208 957.458 175.614 954.307 170.739C951.155 165.864 949.604 159.708 949.653 152.273V42.3637Z" fill="#2F88FF"/>
<path d="M1115.94 101.898L1087.13 103.671C1086.64 101.208 1085.58 98.9925 1083.96 97.0228C1082.33 95.0039 1080.19 93.4035 1077.53 92.2217C1074.92 90.9906 1071.79 90.3751 1068.15 90.3751C1063.27 90.3751 1059.16 91.4092 1055.81 93.4774C1052.47 95.4963 1050.79 98.2046 1050.79 101.602C1050.79 104.311 1051.87 106.6 1054.04 108.472C1056.21 110.343 1059.93 111.845 1065.19 112.977L1085.73 117.114C1096.76 119.379 1104.98 123.023 1110.4 128.046C1115.82 133.068 1118.52 139.667 1118.52 147.841C1118.52 155.277 1116.33 161.801 1111.95 167.415C1107.62 173.029 1101.66 177.411 1094.08 180.563C1086.54 183.665 1077.85 185.216 1068 185.216C1052.98 185.216 1041.02 182.089 1032.1 175.835C1023.24 169.532 1018.04 160.964 1016.52 150.131L1047.47 148.506C1048.4 153.085 1050.67 156.582 1054.26 158.994C1057.86 161.358 1062.46 162.54 1068.08 162.54C1073.59 162.54 1078.02 161.481 1081.37 159.364C1084.77 157.197 1086.49 154.415 1086.54 151.017C1086.49 148.161 1085.29 145.822 1082.92 144C1080.56 142.129 1076.91 140.701 1071.99 139.716L1052.34 135.801C1041.26 133.585 1033.01 129.744 1027.6 124.279C1022.23 118.813 1019.55 111.845 1019.55 103.375C1019.55 96.0872 1021.52 89.8088 1025.46 84.5399C1029.44 79.2709 1035.03 75.2084 1042.22 72.3524C1049.46 69.4963 1057.93 68.0683 1067.63 68.0683C1081.96 68.0683 1093.24 71.0967 1101.46 77.1535C1109.73 83.2103 1114.56 91.4584 1115.94 101.898Z" fill="#2F88FF"/>
<rect x="934" y="69" width="69" height="25" fill="#2F88FF"/>
</svg>
